<?xml version="1.0" encoding="utf-8"?>
<!-- Generator: Adobe Illustrator 23.0.1, SVG Export Plug-In . SVG Version: 6.00 Build 0)  -->
<svg version="1.1" id="Ring" xmlns="http://www.w3.org/2000/svg" xmlns:xlink="http://www.w3.org/1999/xlink" x="0px" y="0px"
	 viewBox="0 0 1366 768" style="enable-background:new 0 0 1366 768;" xml:space="preserve">
<style type="text/css">
	.st0{fill:#212020;stroke:#000000;stroke-miterlimit:10;}
</style>
<path class="st0" d="M0,0v768h1366V0H0z M864.5,382.8c-10.8,14-23.1,27.1-28.8,44.2c-14.6,43.5-8.2,91.8-27.9,133.9
	c-0.9,1.9-3.7,3-5.6,2.3c-8.9-3.2-17.9-6.1-27.1-8.4c-17.9-4.4-37-6-55.2-3.1c-13.9,2.2-30.3,5.8-43.8-0.6c-3.9-1.8-6.4-4.9-8.7-8.4
	c-3.5-5.1-7.2-9.8-11.9-13.8c-8-6.8-18.8-10.1-28.8-12.6c-26-6.6-53.4-7.9-80.2-8.6c-10.6-0.3-21.8-1.2-32.3,0.2
	c-12.4,1.7-24.5,7.6-37.2,7c-30.6-1.2-41.5-40.7-48.9-64.4c-4.4-14.1-9.3-28.8-10.8-43.5c-1-9.8,0.7-20.2,10.4-24.8
	c8.8-4.2,19-4,27.9-8.2c5.9-2.8,10.1-6.3,13.1-12.2c3.2-6.3,4.7-13.6,5.8-20.6c2.4-14.9,2.5-30,5.5-44.7c3.1-15,5.8-30.1,9.5-44.9
	c6.9-27.2,17-56.2,44.2-68.9c23.6-11,52-11.7,74.2-25.7c-0.1-2.6,1.5-5.3,4.8-5.3c11.6,0.1,23.3,1.9,34.7,4.2
	c11,2.2,22.4,4.8,31.6,11.4c7.9,5.6,13.6,13.2,20.1,20.2c7.6,8.2,16.9,14.7,26.4,20.5c36.9,22.4,79.2,33,117,53.5
	c11.6,6.3,22.6,14,29.3,25.6c8,14,10.1,31.9,10.6,47.8C883,353.4,875.3,368.8,864.5,382.8z"/>
</svg>
