<?xml version="1.0" encoding="utf-8"?>
<!-- Generator: Adobe Illustrator 23.0.1, SVG Export Plug-In . SVG Version: 6.00 Build 0)  -->
<svg version="1.1" id="RingCV" xmlns="http://www.w3.org/2000/svg" xmlns:xlink="http://www.w3.org/1999/xlink" x="0px" y="0px"
	 viewBox="0 0 1366 768" style="enable-background:new 0 0 1366 768;" xml:space="preserve">
<style type="text/css">
	.RingCV{fill:#212020;stroke:#000000;stroke-miterlimit:10;}
</style>
<path class="RingCV" d="M0.5-0.5v768h1366v-768H0.5z M945,395.9c-2.3,13.6-6,27-10.9,39.9c-9,23.7-22.1,47.6-42,63.8
	c-17.7,14.5-39.2,20.1-60.9,15.7c-7.9,2.2-16.1,3.7-24.4,5.4c-13.8,2.8-27.3,6.3-40.6,11.2c-12.5,4.6-25.4,8.7-38.6,10.7
	c-14.5,2.3-28.6,1.5-42.4-1.4c-0.9,0.2-1.8,0.4-2.7,0.6c-37.1,7.2-76.9,1.5-112.1-11.4c-18.5-6.8-37.5-16.2-53.5-28.8
	c-3.7-1.2-7.3-2.7-10.9-4.4c-8.9-4.3-17.4-9.8-23.5-17.7c-5.3-6.8-8.4-14.8-10.9-22.9c-3.8-12.1-7.3-23.9-12.4-35.6
	c-5.7-12.8-11.1-25.5-12.6-39.6c-2.4-23.2-4.1-46.9-1.8-70.2c0.1-1.1,0.2-2.2,0.3-3.2c-12-7.2-15.7-23-12.4-37.1
	c3.6-15.2,14.9-28.7,30.1-31.7c-3-5.4-4.5-11.4-3.8-17.8c1-8.6,5.6-16.4,11.8-22.3c13.8-13.1,34.7-18.1,52.4-10.2
	c1.9,0.9,2.6,2.3,2.6,3.9c16.6-4.3,34.9-6.7,43.9-22.7c1.4-2.5,3.8-2.9,5.8-2.1c4.5-3.2,9.6-5.3,15.3-6.3
	c10.5-1.9,21.1-0.6,31.5,0.9c5.9,0.8,11.7,1.9,17.6,2.5c4.1,0.4,8.2,0.6,12.4,0.8c-0.2-8.2-0.3-16.6,2.7-24.1
	c8-20.5,39.2-23.6,56.2-13.7c8.9,5.2,14.7,13.3,18.4,22.6c29.4,2.5,60.5,7,86.4,21.9c14,8,23.6,20.2,32.4,33.1
	c14.1,3.3,28.7,3.2,43,5.3c18.9,2.8,36.1,13.3,42.1,32.5c2.4,7.6,2.1,15.9-1.7,23c-3.5,6.6-9.6,11-16.4,13.9c2.6,4.5,5,9.2,7.3,13.9
	c5.9,11.6,12.3,23.1,16.7,35.4c6.8,18.9,8.2,41.1,2.4,60.8C943.9,391.1,945.5,393.2,945,395.9z"/>
</svg>
