<?xml version="1.0" encoding="utf-8"?>
<!-- Generator: Adobe Illustrator 23.0.1, SVG Export Plug-In . SVG Version: 6.00 Build 0)  -->
<svg version="1.1" id="Ring" xmlns="http://www.w3.org/2000/svg" xmlns:xlink="http://www.w3.org/1999/xlink" x="0px" y="0px"
	 viewBox="0 0 1366 768" style="enable-background:new 0 0 1366 768;" xml:space="preserve">
<style type="text/css">
	.st0{fill:#212020;stroke:#000000;stroke-miterlimit:10;}
</style>
<path class="st0" d="M0,0v768h1366V0H0z M856.4,374.4c-1.1,27.5-27.3,40.4-49.6,51.2c1.8,1.6,3.5,3.2,5.2,4.9
	c8.2,8.1,16.3,17.2,21,27.9c4.7,10.7,3.3,19.9-1.3,30.4c-4.6,10.6-12.4,19.7-23.7,23.3c-22.9,7.4-48.7-8-66.7-20.6
	c-8-5.6-15.8-11.6-23.3-18.1c-11.9,3.1-24.2,5.1-36.4,6c-7.8,7.7-17.6,13.4-26.9,19.2c-17.2,10.9-37.8,30.7-59.9,22.5
	c-12.4-4.6-22.9-13.6-33.3-21.4c-10.9-8.1-22-15.8-32.3-24.7c-19.9-17.3-36-40.3-33.3-68c1.2-12.5,6.6-23.2,12.6-33.6
	c-0.5-5.3-0.4-10.6,0.1-15.8c-5.5-6.3-10.8-12.7-15.8-19.3c-5.6-7.4,0.1-18.4,6.2-23.8c6.8-6.1,15.7-9.3,22.8-14.8
	c-4.6-3.6-8.8-8.2-8.8-13.9c0.1-6.1,5.2-10,10.2-12.3c11.3-5.1,24.3-6.1,36.5-7.6c7.3-0.9,16-3,23.8-6.6c8.7-4,17-9,25.9-12.7
	c11.5-4.8,23.5-6.6,35.8-7.9c14-1.5,28.1-1.7,42.1-0.9c28.2,1.7,56,7.3,83.1,15.2c3.5,1,4.2,4.6,2.9,7.2
	c12.8,3.7,24.6,11.4,34.5,20.3c14.2,12.7,26.1,28.5,35.1,45.3C850.7,340.1,857,357.8,856.4,374.4z"/>
</svg>
