<?xml version="1.0" encoding="utf-8"?>
<!-- Generator: Adobe Illustrator 23.0.1, SVG Export Plug-In . SVG Version: 6.00 Build 0)  -->
<svg version="1.1" id="RingHome" xmlns="http://www.w3.org/2000/svg" xmlns:xlink="http://www.w3.org/1999/xlink" x="0px" y="0px"
	 viewBox="0 0 1366 768" style="enable-background:new 0 0 1366 768;" xml:space="preserve">
<style type="text/css">
	.RingHome{fill:#212020;stroke:#000000;stroke-miterlimit:10;}
</style>
<path class="RingHome" d="M0.5-0.5v768h1366v-768H0.5z M939,398.3c-7.2,17.1-20.5,30.4-32.8,43.9c-7.7,8.5-15.5,17.2-21.7,26.9
	c-5.5,8.6-10.8,17.5-17.5,25.3c-15.6,18.2-37.9,21.8-60.2,26.3c-13.8,2.8-27.3,6.3-40.6,11.2c-12.5,4.6-25.4,8.7-38.6,10.7
	c-24.3,3.8-47.4-0.8-70-10.3c-12.4-5.2-23.9-12.1-36.2-17.3c-11.2-4.8-23-7.3-35.2-8c-13.9-0.7-27.8,0.4-41.6-0.4
	c-13.6-0.8-26.3-3.7-38.5-9.6c-8.9-4.3-17.4-9.8-23.5-17.7c-5.3-6.8-8.4-14.8-10.9-22.9c-3.8-12.1-7.3-23.9-12.4-35.6
	c-5.7-12.8-11.1-25.5-12.6-39.6c-2.4-23.2-4.1-46.9-1.8-70.2c1.1-11.7,3.2-23.5,7.5-34.5c3.9-10.1,10.2-18.9,15.7-28.1
	c11.4-19,24.6-43.7,46.4-52.3c18.8-7.4,44.2-6.5,55.3-26.2c1.4-2.5,3.8-2.9,5.8-2.1c4.5-3.2,9.6-5.3,15.3-6.3
	c10.5-1.9,21.1-0.6,31.5,0.9c5.9,0.8,11.7,1.9,17.6,2.5c5.6,0.6,11.3,0.6,16.9,1.2c27.2,2.8,52.9,13.8,80.3,14.5
	c12.5,0.3,24.3-3.9,36.6-5.8c12.5-2,24.4-0.6,36.3,3.9c10.2,3.8,19.1,9.8,26.5,17.6c7.3,7.7,13.2,16.7,20.2,24.8
	c7.3,8.4,15.7,16,24.5,22.9c7.4,5.8,15,11.3,21.4,18.3c8.7,9.4,14.4,20.4,20.1,31.7c5.9,11.6,12.3,23.1,16.7,35.4
	C947.3,350.9,948,376.8,939,398.3z"/>
</svg>
